<svg width="20" height="18" viewBox="0 0 20 18" fill="none" xmlns="http://www.w3.org/2000/svg">
<path d="M7.73753 14.0273H3.16739C2.91748 14.0273 2.7149 14.2299 2.7149 14.4798C2.7149 14.7297 2.91748 14.9323 3.16739 14.9323H7.73753C7.98744 14.9323 8.19002 14.7297 8.19002 14.4798C8.19002 14.2299 7.98744 14.0273 7.73753 14.0273Z" fill="#F9F9F9"/>
<path d="M14.5702 14.0273H10C9.75013 14.0273 9.54755 14.2299 9.54755 14.4798C9.54755 14.7297 9.75013 14.9323 10 14.9323H14.5702C14.82 14.9323 15.0227 14.7297 15.0227 14.4798C15.0227 14.2299 14.82 14.0273 14.5702 14.0273Z" fill="#F9F9F9"/>
<path d="M14.5701 2.71484H3.16739C2.91748 2.71484 2.7149 2.91742 2.7149 3.16733C2.7149 3.41724 2.91748 3.61982 3.16739 3.61982H14.5701C14.82 3.61982 15.0226 3.41724 15.0226 3.16733C15.0226 2.91742 14.82 2.71484 14.5701 2.71484Z" fill="#F9F9F9"/>
<path d="M14.5702 4.97717H10C9.75013 4.97717 9.54755 5.17975 9.54755 5.42966C9.54755 5.67957 9.75013 5.88215 10 5.88215H14.5702C14.82 5.88215 15.0227 5.67957 15.0227 5.42966C15.0227 5.17975 14.82 4.97717 14.5702 4.97717Z" fill="#F9F9F9"/>
<path d="M14.5702 7.2395H10C9.75013 7.2395 9.54755 7.44208 9.54755 7.69199C9.54755 7.9419 9.75013 8.14448 10 8.14448H14.5702C14.82 8.14448 15.0227 7.9419 15.0227 7.69199C15.0227 7.44208 14.82 7.2395 14.5702 7.2395Z" fill="#F9F9F9"/>
<path d="M14.5702 9.50195H10C9.75013 9.50195 9.54755 9.70453 9.54755 9.95444C9.54755 10.2044 9.75013 10.4069 10 10.4069H14.5702C14.82 10.4069 15.0227 10.2044 15.0227 9.95444C15.0227 9.70453 14.82 9.50195 14.5702 9.50195Z" fill="#F9F9F9"/>
<path d="M14.5702 11.7649H10C9.75013 11.7649 9.54755 11.9675 9.54755 12.2174C9.54755 12.4673 9.75013 12.6699 10 12.6699H14.5702C14.82 12.6699 15.0227 12.4673 15.0227 12.2174C15.0227 11.9675 14.82 11.7649 14.5702 11.7649Z" fill="#F9F9F9"/>
<path d="M7.73753 11.7649H3.16739C2.91748 11.7649 2.7149 11.9675 2.7149 12.2174C2.7149 12.4673 2.91748 12.6699 3.16739 12.6699H7.73753C7.98744 12.6699 8.19002 12.4673 8.19002 12.2174C8.19002 11.9675 7.98744 11.7649 7.73753 11.7649Z" fill="#F9F9F9"/>
<path d="M7.73753 4.97717H3.16739C2.91748 4.97717 2.7149 5.17975 2.7149 5.42966V9.9998C2.7149 10.2497 2.91748 10.4523 3.16739 10.4523H7.73753C7.98744 10.4523 8.19002 10.2497 8.19002 9.9998V5.42966C8.19002 5.17975 7.98744 4.97717 7.73753 4.97717ZM7.28504 9.54731H3.61988V5.88215H7.28504V9.54731Z" fill="#F9F9F9"/>
<path d="M19.095 2.26244H17.7376V0.904977C17.7376 0.405973 17.3316 0 16.8326 0H0.904977C0.405973 0 0 0.405973 0 0.904977V15.3846C0 16.6321 1.01493 17.6471 2.26244 17.6471H17.7376C18.9851 17.6471 20 16.6321 20 15.3846V3.16742C20 2.66842 19.594 2.26244 19.095 2.26244ZM19.095 15.3846C19.095 16.1331 18.4861 16.7421 17.7376 16.7421H2.26244C1.51394 16.7421 0.904977 16.1331 0.904977 15.3846V0.904977H16.8326V14.7059C16.8326 15.3296 17.34 15.8371 17.9638 15.8371C18.2137 15.8371 18.4163 15.6345 18.4163 15.3846C18.4163 15.1347 18.2137 14.9321 17.9638 14.9321C17.8391 14.9321 17.7376 14.8306 17.7376 14.7059V3.16742H19.095V15.3846Z" fill="#F9F9F9"/>
</svg>
