<svg width="15" height="16" viewBox="0 0 15 16" fill="none" xmlns="http://www.w3.org/2000/svg">
<path d="M14.9609 5.71484C14.8627 5.39663 14.5933 5.17063 14.2746 5.14053L9.94515 4.72868L8.23319 0.53073C8.10696 0.223075 7.81947 0.0239258 7.50006 0.0239258C7.18065 0.0239258 6.89317 0.223075 6.76694 0.53145L5.05497 4.72868L0.724884 5.14053C0.406731 5.17134 0.138017 5.39663 0.0392523 5.71484C-0.0595126 6.03304 0.031699 6.38206 0.272374 6.60208L3.54489 9.60885L2.5799 14.0622C2.50929 14.3896 2.6306 14.7281 2.88993 14.9245C3.02932 15.03 3.1924 15.0837 3.35686 15.0837C3.49865 15.0837 3.63931 15.0437 3.76554 14.9645L7.50006 12.6262L11.2332 14.9645C11.5064 15.1367 11.8507 15.121 12.1095 14.9245C12.369 14.7275 12.4901 14.3889 12.4195 14.0622L11.4545 9.60885L14.7271 6.60267C14.9677 6.38206 15.0596 6.03364 14.9609 5.71484Z" fill="#E1AA12"/>
</svg>
