<svg width="15" height="15" viewBox="0 0 15 15" fill="none" xmlns="http://www.w3.org/2000/svg">
<path d="M7.5 0C3.35791 0 0 3.35791 0 7.5C0 11.6421 3.35791 15 7.5 15C11.6421 15 15 11.6421 15 7.5C14.9954 3.35986 11.6401 0.00463869 7.5 0ZM7.7677 2.16223L10.375 1.12C10.6709 1.25391 10.9572 1.4082 11.2317 1.58179L11.2385 1.58606C11.5083 1.75696 11.7661 1.94604 12.0103 2.15198L12.0312 2.17029C12.1407 2.26355 12.2472 2.36011 12.3507 2.45972C12.3638 2.47253 12.3774 2.48474 12.3905 2.4978C12.499 2.60376 12.6041 2.71301 12.7058 2.82544C12.7142 2.83496 12.7223 2.84497 12.7307 2.85449C12.8199 2.95447 12.9058 3.05798 12.989 3.16321C13.009 3.18823 13.0291 3.21326 13.0485 3.23828C13.1388 3.35522 13.2262 3.47424 13.3087 3.59705L12.7889 5.80652L10.2317 6.65906L7.76831 4.68799L7.7677 2.16223ZM1.95129 3.23975C1.9707 3.21472 1.99048 3.1897 2.0105 3.16479C2.09277 3.06042 2.17786 2.95862 2.26575 2.85925C2.27527 2.84875 2.28406 2.83801 2.29346 2.82751C2.39453 2.71484 2.49915 2.60571 2.60754 2.5C2.62 2.48779 2.63245 2.47498 2.64551 2.46375C2.74817 2.36475 2.85376 2.2688 2.96228 2.17603L2.9873 2.15503C3.22925 1.95056 3.48462 1.7627 3.75171 1.59253L3.76147 1.5863C4.03442 1.41309 4.31885 1.25903 4.61304 1.125L7.2323 2.16223V4.68726L4.7688 6.65796L2.21155 5.80701L1.69177 3.59753C1.77502 3.47498 1.86145 3.3562 1.95129 3.23975ZM1.65002 11.3363C1.57654 11.2242 1.50623 11.1101 1.43921 10.9938L1.42297 10.9657C1.35632 10.85 1.29321 10.7323 1.23376 10.6128L1.23169 10.609C1.10645 10.3575 0.99646 10.0988 0.902466 9.83398V9.83154C0.858032 9.70654 0.817505 9.57849 0.780029 9.44971L0.766479 9.40222C0.732178 9.28125 0.70105 9.15894 0.673218 9.03528C0.670776 9.02319 0.667725 9.01172 0.665283 8.99976C0.603882 8.72046 0.559814 8.43774 0.533203 8.15295L2.05945 6.32153L4.599 7.16797L5.33606 10.116L4.125 11.7273L1.65002 11.3363ZM9.16479 14.2982C9.03979 14.3292 8.9115 14.356 8.7832 14.38C8.76526 14.3835 8.74695 14.3865 8.729 14.3898C8.61975 14.4093 8.50928 14.426 8.39856 14.4397C8.36902 14.4435 8.33972 14.4475 8.3103 14.451C8.20752 14.463 8.10376 14.472 7.99976 14.4795C7.96704 14.4817 7.93469 14.485 7.90198 14.4871C7.76904 14.4952 7.63501 14.5 7.5 14.5C7.37634 14.5 7.25342 14.4967 7.13123 14.4902C7.11646 14.4902 7.10229 14.4878 7.08752 14.4867C6.97876 14.4805 6.87048 14.4723 6.76245 14.4618L6.75 14.4595C6.51331 14.4338 6.27795 14.3962 6.04504 14.347L4.56628 12.0317L5.7583 10.4423H9.2417L10.4532 12.0422L9.16479 14.2982ZM14.3365 9C14.334 9.01196 14.3311 9.02356 14.3285 9.03552C14.3005 9.15906 14.2694 9.28137 14.2352 9.40247L14.2218 9.44995C14.1842 9.57874 14.1438 9.7063 14.0992 9.83179V9.83423C14.0052 10.099 13.8954 10.3578 13.77 10.6093L13.7679 10.613C13.7081 10.7327 13.6451 10.8503 13.5787 10.9659L13.5625 10.994C13.4958 11.1107 13.4257 11.2246 13.3521 11.3361L10.8855 11.725L9.66602 10.115L10.4027 7.16772L12.9423 6.32129L14.4685 8.15271C14.442 8.43762 14.3979 8.72058 14.3365 9Z" fill="#072446"/>
</svg>
