<svg width="20" height="15" viewBox="0 0 20 15" fill="none" xmlns="http://www.w3.org/2000/svg">
<path d="M19.6094 0H0.390625C0.174922 0 0 0.174922 0 0.390625V14.258C0 14.4737 0.174922 14.6486 0.390625 14.6486H19.6094C19.8251 14.6486 20 14.4737 20 14.258V0.390625C20 0.174922 19.8251 0 19.6094 0ZM9.60938 9.87203C8.37293 9.68324 7.4227 8.61266 7.4227 7.3243C7.4227 6.03594 8.37293 4.96535 9.60938 4.77656V9.87203ZM10.3906 4.77656C11.6271 4.96535 12.5773 6.03594 12.5773 7.3243C12.5773 8.61266 11.6271 9.68324 10.3906 9.87203V4.77656ZM0.78125 4.59492H3.1059V10.0537H0.78125V4.59492ZM0.78125 10.8349H3.49652C3.71223 10.8349 3.88715 10.66 3.88715 10.4443V4.2043C3.88715 3.98859 3.71223 3.81367 3.49652 3.81367H0.78125V0.78125H9.60938V3.98836C7.94082 4.1825 6.64145 5.60449 6.64145 7.3243C6.64145 9.0441 7.94078 10.4661 9.60938 10.6602V13.8673H0.78125V10.8349ZM10.3906 13.8673V10.6602C12.0592 10.4661 13.3586 9.0441 13.3586 7.3243C13.3586 5.60449 12.0592 4.1825 10.3906 3.98836V0.78125H19.2188V3.81367H16.5035C16.2878 3.81367 16.1129 3.98859 16.1129 4.2043V10.4443C16.1129 10.66 16.2878 10.8349 16.5035 10.8349H19.2188V13.8673H10.3906ZM19.2188 10.0537H16.8941V4.59492H19.2188V10.0537Z" fill="#F9F9F9"/>
</svg>
