<svg width="15" height="15" viewBox="0 0 15 15" fill="none" xmlns="http://www.w3.org/2000/svg">
<path d="M3.10798 0.171862C3.10781 0.172038 3.10761 0.172184 3.10744 0.172389L0.164787 3.23403C-0.0556576 3.46339 -0.0548373 3.83438 0.166711 4.06269C0.38823 4.29097 0.746527 4.29009 0.966999 4.06073L2.94265 2.00514L2.94265 14.4141C2.94265 14.7377 3.196 15 3.50855 15C3.82109 15 4.07444 14.7377 4.07444 14.4141L4.07444 2.00517L6.0501 4.0607C6.27057 4.29006 6.62886 4.29094 6.85038 4.06266C7.07196 3.83435 7.07272 3.46333 6.85231 3.234L3.90965 0.17236C3.90948 0.172184 3.90929 0.172037 3.90912 0.171832C3.68791 -0.0576497 3.32845 -0.0569173 3.10798 0.171862Z" fill="#00B0A6"/>
<path d="M11.892 14.8281C11.8922 14.828 11.8924 14.8278 11.8926 14.8276L14.8352 11.766C15.0557 11.5366 15.0548 11.1656 14.8333 10.9373C14.6118 10.709 14.2535 10.7099 14.033 10.9393L12.0573 12.9949L12.0573 0.585937C12.0573 0.262324 11.804 -1.34193e-07 11.4915 -1.47316e-07C11.1789 -1.60439e-07 10.9256 0.262324 10.9256 0.585937L10.9256 12.9948L8.9499 10.9393C8.72943 10.7099 8.37114 10.7091 8.14962 10.9373C7.92804 11.1656 7.92728 11.5367 8.14769 11.766L11.0903 14.8276C11.0905 14.8278 11.0907 14.828 11.0909 14.8282C11.3121 15.0576 11.6715 15.0569 11.892 14.8281Z" fill="#CF0000"/>
</svg>
