<svg width="18" height="18" viewBox="0 0 18 18" fill="none" xmlns="http://www.w3.org/2000/svg">
<path d="M16.9583 7.04621C16.8535 6.70814 16.5662 6.46802 16.2262 6.43605L11.6082 5.99849L9.78207 1.53845C9.64742 1.21158 9.34077 1 9.00006 1C8.65936 1 8.35271 1.21158 8.21806 1.53921L6.39197 5.99849L1.77321 6.43605C1.43385 6.46878 1.14722 6.70814 1.04187 7.04621C0.93652 7.38428 1.03381 7.75509 1.29053 7.98884L4.78121 11.1833L3.75189 15.9147C3.67657 16.2626 3.80597 16.6222 4.08259 16.8308C4.23128 16.9429 4.40523 17 4.58065 17C4.7319 17 4.88193 16.9575 5.01657 16.8734L9.00006 14.389L12.9821 16.8734C13.2735 17.0563 13.6408 17.0396 13.9168 16.8308C14.1935 16.6215 14.3228 16.2618 14.2475 15.9147L13.2182 11.1833L16.7089 7.98948C16.9656 7.75509 17.0636 7.38492 16.9583 7.04621V7.04621Z" stroke="#F9F9F9"/>
</svg>
